<svg width="24" height="24" viewBox="0 0 24 24" fill="none" xmlns="http://www.w3.org/2000/svg">
<path fill-rule="evenodd" clip-rule="evenodd" d="M2 7C2 6.44772 2.44772 6 3 6H21C21.5523 6 22 6.44772 22 7C22 7.55228 21.5523 8 21 8H3C2.44772 8 2 7.55228 2 7ZM2 12C2 11.4477 2.44772 11 3 11H21C21.5523 11 22 11.4477 22 12C22 12.5523 21.5523 13 21 13H3C2.44772 13 2 12.5523 2 12ZM3 16.5C2.44772 16.5 2 16.9477 2 17.5C2 18.0523 2.44772 18.5 3 18.5H21C21.5523 18.5 22 18.0523 22 17.5C22 16.9477 21.5523 16.5 21 16.5H3Z" fill="black" fill-opacity="0.8"/>
</svg>
