<svg width="84" height="84" viewBox="0 0 84 84" fill="none" xmlns="http://www.w3.org/2000/svg">
<path d="M48.1376 32.6006C46.2491 32.6006 44.6753 34.7339 44.6753 37.4006C44.6753 40.0673 46.2491 42.2006 48.1376 42.2006C50.0261 42.2006 51.5999 40.0673 51.5999 37.4006C51.5999 34.7339 50.0261 32.6006 48.1376 32.6006ZM35.8622 32.6006C33.9737 32.6006 32.3999 34.7339 32.3999 37.4006C32.3999 40.0673 33.9737 42.2006 35.8622 42.2006C37.7507 42.2006 39.3245 40.0673 39.3245 37.4006C39.3245 34.7339 37.7507 32.6006 35.8622 32.6006Z" fill="white"/>
<path d="M66.4571 7H17.5429C13.3143 7 10 10.19 10 14.26V61.89C10 65.85 13.3143 69.15 17.5429 69.15H59.0286L57.0857 62.66L61.7714 66.84L66.2286 70.8L74 77.4V14.26C74 10.19 70.6857 7 66.4571 7ZM52.4 52.98C52.4 52.98 51.0286 51.44 50 50.12C54.8 48.8 56.6286 45.94 56.6286 45.94C55.1429 46.93 53.6571 47.59 52.4 48.03C50.5714 48.8 48.8571 49.24 47.1429 49.57C43.6 50.23 40.4 50.01 37.6571 49.57C35.6 49.13 33.7714 48.58 32.2857 48.03C31.4857 47.7 30.5714 47.37 29.6571 46.82C29.5429 46.71 29.4286 46.71 29.3143 46.6C29.2 46.6 29.2 46.49 29.2 46.49C28.5143 46.16 28.1714 45.94 28.1714 45.94C28.1714 45.94 29.8857 48.8 34.5714 50.12C33.4286 51.44 32.1714 53.09 32.1714 53.09C24.0571 52.87 20.9714 47.7 20.9714 47.7C20.9714 36.37 26.2286 27.13 26.2286 27.13C31.4857 23.28 36.5143 23.39 36.5143 23.39L36.8571 23.83C30.2286 25.7 27.1429 28.45 27.1429 28.45C27.1429 28.45 27.9429 28.01 29.3143 27.46C33.2 25.81 36.2857 25.37 37.6571 25.26C37.8857 25.26 38.1143 25.15 38.2286 25.15C40.5143 24.82 43.0286 24.82 45.6571 25.04C49.0857 25.48 52.8571 26.36 56.6286 28.45C56.6286 28.45 53.7714 25.81 47.4857 23.94L47.9429 23.39C47.9429 23.39 52.9714 23.28 58.2286 27.13C58.2286 27.13 63.4857 36.37 63.4857 47.7C63.6 47.59 60.5143 52.76 52.4 52.98Z" fill="white"/>
</svg>
