<svg width="88" height="88" viewBox="0 0 88 88" fill="none" xmlns="http://www.w3.org/2000/svg">
<path d="M84 17.9587C81.058 19.267 77.8565 20.2086 74.5588 20.5753C77.9623 18.484 80.5485 15.1836 81.7695 11.2587C78.6256 13.1914 75.0684 14.6087 71.3669 15.3422C68.3673 12.0417 64.1082 10 59.3876 10C50.3021 10 42.9953 17.592 42.9953 26.9086C42.9953 28.2169 43.1491 29.5251 43.3991 30.7839C29.795 30.0504 17.6618 23.3504 9.59548 13.0923C8.17258 15.6098 7.36498 18.484 7.36498 21.6259C7.36498 27.4933 10.2589 32.667 14.6718 35.7098C11.9798 35.6007 9.44165 34.8178 7.25922 33.559V33.7672C7.25922 41.9836 12.8932 48.7926 20.4019 50.3586C19.027 50.7253 17.5561 50.9334 16.0851 50.9334C15.0179 50.9334 14.0084 50.8244 12.9893 50.6757C15.066 57.3757 21.1133 62.2422 28.3144 62.4007C22.6804 66.95 15.6236 69.626 7.96106 69.626C6.58623 69.626 5.31715 69.5765 4 69.4179C11.2684 74.2249 19.8923 77 29.1797 77C59.3299 77 75.8279 51.2506 75.8279 28.9007C75.8279 28.1673 75.8279 27.4339 75.7798 26.7004C78.9718 24.292 81.7695 21.3087 84 17.9587Z" fill="white"/>
</svg>
