<svg width="88" height="88" viewBox="0 0 88 88" fill="none" xmlns="http://www.w3.org/2000/svg">
<path fill-rule="evenodd" clip-rule="evenodd" d="M24.5338 24.2447L11.2949 18.7849C10.9956 18.6615 10.6667 18.8807 10.6667 19.2035V68.7964C10.6667 69.1248 11.0063 69.3441 11.307 69.2098L24.5581 63.2892C24.885 63.1432 25.0953 62.8194 25.0953 62.4623V25.082C25.0953 24.7154 24.8736 24.3849 24.5338 24.2447ZM64.1391 24.2372L77.353 18.7864C77.6598 18.6597 77.9999 18.8791 77.9999 19.2037V68.7963C77.9999 69.1265 77.6486 69.3459 77.3403 69.2081L64.114 63.297C63.7833 63.1492 63.5714 62.8275 63.5714 62.4732V25.0719C63.5714 24.7079 63.7949 24.3793 64.1391 24.2372ZM30.4211 35.0914L43.7332 28.4697C44.0002 28.3368 44.3163 28.3353 44.5847 28.4655L58.2374 35.0936C58.5588 35.2495 58.762 35.5695 58.762 35.9195V51.9503C58.762 52.2977 58.5617 52.6158 58.2441 52.773L44.5913 59.5309C44.3193 59.6655 43.9973 59.664 43.7266 59.5268L30.4145 52.775C30.1013 52.6162 29.9048 52.3007 29.9048 51.9565V35.9133C29.9048 35.5665 30.1042 35.249 30.4211 35.0914Z" fill="white"/>
</svg>
