<svg width="28" height="28" viewBox="0 0 28 28" fill="none" xmlns="http://www.w3.org/2000/svg">
<path d="M15.918 11C15.3278 11 14.836 11.6667 14.836 12.5C14.836 13.3333 15.3278 14 15.918 14C16.5081 14 16.9999 13.3333 16.9999 12.5C16.9999 11.6667 16.5081 11 15.918 11ZM12.0819 11C11.4917 11 10.9999 11.6667 10.9999 12.5C10.9999 13.3333 11.4917 14 12.0819 14C12.6721 14 13.1639 13.3333 13.1639 12.5C13.1639 11.6667 12.6721 11 12.0819 11Z" fill="black" fill-opacity="0.8"/>
<path d="M20.8786 4H7.12143C5.93214 4 5 4.90625 5 6.0625V19.5938C5 20.7188 5.93214 21.6562 7.12143 21.6562H18.7893L18.2429 19.8125L19.5607 21L20.8143 22.125L23 24V6.0625C23 4.90625 22.0679 4 20.8786 4ZM16.925 17.0625C16.925 17.0625 16.5393 16.625 16.25 16.25C17.6 15.875 18.1143 15.0625 18.1143 15.0625C17.6964 15.3438 17.2786 15.5312 16.925 15.6562C16.4107 15.875 15.9286 16 15.4464 16.0938C14.45 16.2812 13.55 16.2188 12.7786 16.0938C12.2 15.9688 11.6857 15.8125 11.2679 15.6562C11.0429 15.5625 10.7857 15.4688 10.5286 15.3125C10.4964 15.2812 10.4643 15.2812 10.4321 15.25C10.4 15.25 10.4 15.2188 10.4 15.2188C10.2071 15.125 10.1107 15.0625 10.1107 15.0625C10.1107 15.0625 10.5929 15.875 11.9107 16.25C11.5893 16.625 11.2357 17.0938 11.2357 17.0938C8.95357 17.0312 8.08571 15.5625 8.08571 15.5625C8.08571 12.3438 9.56429 9.71875 9.56429 9.71875C11.0429 8.625 12.4571 8.65625 12.4571 8.65625L12.5536 8.78125C10.6893 9.3125 9.82143 10.0938 9.82143 10.0938C9.82143 10.0938 10.0464 9.96875 10.4321 9.8125C11.525 9.34375 12.3929 9.21875 12.7786 9.1875C12.8429 9.1875 12.9071 9.15625 12.9393 9.15625C13.5821 9.0625 14.2893 9.0625 15.0286 9.125C15.9929 9.25 17.0536 9.5 18.1143 10.0938C18.1143 10.0938 17.3107 9.34375 15.5429 8.8125L15.6714 8.65625C15.6714 8.65625 17.0857 8.625 18.5643 9.71875C18.5643 9.71875 20.0429 12.3438 20.0429 15.5625C20.075 15.5312 19.2071 17 16.925 17.0625Z" fill="black" fill-opacity="0.8"/>
</svg>
