<svg width="80" height="80" viewBox="0 0 80 80" fill="none" xmlns="http://www.w3.org/2000/svg">
<rect width="80" height="80" rx="16" fill="#FDF3F3"/>
<path fill-rule="evenodd" clip-rule="evenodd" d="M40.8369 31.4136V20H29.4154C26.4246 20 24 22.5785 24 25.7592V54.2408C24 57.4215 26.4246 60 29.4154 60H50.5846C53.5754 60 56 57.4215 56 54.2408V35.7068H44.8738C42.6666 35.7068 40.8731 33.8229 40.8375 31.4846L40.8369 31.4136ZM42.5123 20.4291L42.4878 20.4047C42.4632 20.381 42.4381 20.3585 42.4123 20.3371V31.4136C42.4123 32.8449 43.4924 34.008 44.8332 34.0311L44.8738 34.0314H55.7311C55.6536 33.8906 55.5608 33.76 55.4548 33.642C55.4113 33.5795 55.3629 33.521 55.3101 33.4673L42.5123 20.4291ZM28.3232 43.4783C28.3232 42.5178 29.1018 41.7391 30.0623 41.7391H43.0165C43.977 41.7391 44.7556 42.5178 44.7556 43.4783C44.7556 44.4388 43.977 45.2174 43.0165 45.2174H30.0623C29.1018 45.2174 28.3232 44.4388 28.3232 43.4783ZM28.3231 51.3043C28.3231 50.3438 29.1017 49.5652 30.0622 49.5652H49.9353C50.8958 49.5652 51.6744 50.3438 51.6744 51.3043C51.6744 52.2648 50.8958 53.0435 49.9353 53.0435H30.0622C29.1017 53.0435 28.3231 52.2648 28.3231 51.3043Z" fill="#ED7086"/>
</svg>
