<svg width="80" height="80" viewBox="0 0 80 80" fill="none" xmlns="http://www.w3.org/2000/svg">
<rect width="80" height="80" rx="16" fill="#EFFBEF"/>
<path fill-rule="evenodd" clip-rule="evenodd" d="M40.8369 31.4136V20H29.4154C26.4246 20 24 22.5785 24 25.7592V54.2408C24 57.4215 26.4246 60 29.4154 60H50.5846C53.5754 60 56 57.4215 56 54.2408V35.7068H44.8738C42.6666 35.7068 40.8731 33.8229 40.8375 31.4846L40.8369 31.4136ZM42.5123 20.4291L42.4878 20.4047C42.4632 20.381 42.4381 20.3585 42.4123 20.3371V31.4136C42.4123 32.8449 43.4924 34.008 44.8332 34.0311L44.8738 34.0314H55.7311C55.6536 33.8906 55.5608 33.76 55.4548 33.642C55.4113 33.5795 55.3629 33.521 55.3101 33.4673L42.5123 20.4291ZM35.5385 40.6897C34.0149 40.6897 32.7692 41.8932 32.7692 43.3295V44.2759C32.7692 45.0186 32.1493 45.6207 31.3846 45.6207C30.6199 45.6207 30 45.0186 30 44.2759V43.3295C30 40.3645 32.5304 38 35.5385 38H36.7958C39.7938 38 42 40.6642 42 43.3295V44.518C42 46.9113 40.0025 48.8514 37.5385 48.8514C37.4535 48.8514 37.3846 48.9183 37.3846 49.0008V49.6552C37.3846 50.3979 36.7647 51 36 51C35.2353 51 34.6154 50.3979 34.6154 49.6552V49.0008C34.6154 47.4328 35.9241 46.1617 37.5385 46.1617C38.4731 46.1617 39.2308 45.4258 39.2308 44.518V43.3295C39.2308 41.897 38.0167 40.6897 36.7958 40.6897H35.5385ZM37.5 53.5C37.5 54.3284 36.8284 55 36 55C35.1716 55 34.5 54.3284 34.5 53.5C34.5 52.6716 35.1716 52 36 52C36.8284 52 37.5 52.6716 37.5 53.5Z" fill="#5EB280"/>
</svg>
