<svg width="30" height="32" viewBox="0 0 30 32" fill="none" xmlns="http://www.w3.org/2000/svg">
<path d="M7.70715 3.04571C11.2663 1.01524 13.0459 0 15 0C16.9541 0 18.7337 1.01524 22.2928 3.04571L22.7072 3.28207C26.2663 5.31255 28.0459 6.32779 29.0229 8C30 9.67221 30 11.7027 30 15.7636V16.2364C30 20.2973 30 22.3278 29.0229 24C28.0459 25.6722 26.2663 26.6875 22.7072 28.7179L22.2928 28.9543C18.7337 30.9848 16.9541 32 15 32C13.0459 32 11.2663 30.9848 7.70715 28.9543L7.29284 28.7179C3.73369 26.6875 1.95411 25.6722 0.977056 24C0 22.3278 0 20.2973 0 16.2364V15.7636C0 11.7027 0 9.67221 0.977056 8C1.95411 6.32779 3.73369 5.31255 7.29285 3.28207L7.70715 3.04571Z" fill="#5959D8"/>
<path d="M7.35729 8.81819C7.21679 8.86601 7.08793 8.93901 6.97608 9.0318C6.85842 9.12911 6.76349 9.24493 6.69255 9.37198C6.5948 9.54636 6.53906 9.74747 6.53906 9.9616V22.0371C6.53906 22.275 6.60789 22.4969 6.72673 22.6839C6.77643 22.7623 6.83573 22.8358 6.90431 22.9024C7.12186 23.1142 7.419 23.2446 7.74661 23.2446C7.96422 23.2446 8.16839 23.1871 8.34472 23.0863C8.47019 23.0149 8.58447 22.92 8.68045 22.8027C8.70241 22.776 8.72323 22.7483 8.74286 22.7197L11.4544 18.8783L9.9763 16.7844L8.95416 18.2324V13.7661L14.0055 20.9221C14.2317 21.2426 14.5996 21.4333 14.992 21.4333C15.3844 21.4333 15.7523 21.2426 15.9785 20.9221L21.0296 13.7663V18.2321L20.0078 16.7845L18.5297 18.8784L21.2356 22.7118C21.2758 22.7715 21.3213 22.8273 21.3713 22.8788C21.4353 22.9447 21.5055 23.0021 21.5804 23.0506C21.7695 23.1733 21.995 23.2446 22.2372 23.2446C22.535 23.2446 22.8076 23.1368 23.0181 22.9581C23.1448 22.851 23.2444 22.7223 23.3155 22.5812C23.3798 22.454 23.4223 22.3138 23.438 22.1656C23.4434 22.1153 23.4456 22.0647 23.4447 22.014V9.9845C23.4457 9.93011 23.443 9.87579 23.4367 9.82192C23.4223 9.69676 23.3888 9.57742 23.3391 9.46691C23.2539 9.27678 23.1185 9.10623 22.9364 8.97697C22.8794 8.93645 22.8188 8.90074 22.7551 8.87045C22.5582 8.77674 22.3445 8.74061 22.1362 8.75822C21.9726 8.77176 21.8183 8.81791 21.6797 8.89015C21.5432 8.96106 21.4186 9.059 21.3146 9.18249C21.2877 9.21424 21.2625 9.24739 21.239 9.28183L14.992 18.1318L8.73324 9.26518C8.60694 9.08626 8.44087 8.95209 8.25547 8.86619C8.13287 8.80914 7.99909 8.77206 7.85831 8.75915C7.69119 8.74356 7.52034 8.76258 7.35729 8.81819Z" fill="white"/>
<path d="M14.992 13.8667L15.943 15.214L17.4211 13.1201L15.9785 11.0764C15.7523 10.7559 15.3844 10.5652 14.992 10.5652C14.5996 10.5652 14.2317 10.7559 14.0055 11.0764L12.5629 13.12L14.041 15.2139L14.992 13.8667Z" fill="white"/>
</svg>
