<svg width="28" height="28" viewBox="0 0 28 28" fill="none" xmlns="http://www.w3.org/2000/svg">
<path d="M23.2 4H4.8C4.3575 4 4 4.3575 4 4.8V23.2C4 23.6425 4.3575 24 4.8 24H23.2C23.6425 24 24 23.6425 24 23.2V4.8C24 4.3575 23.6425 4 23.2 4ZM20.4 9.1425L19.38 10.12C19.29 10.1875 19.2475 10.2975 19.265 10.405V17.5975C19.2475 17.7075 19.29 17.8175 19.38 17.8825L20.38 18.86V19.0775H15.36V18.87L16.3925 17.8675C16.495 17.765 16.495 17.735 16.495 17.5825V11.7625L13.62 19.0525H13.2325L9.8875 11.7625V16.65C9.8575 16.855 9.93 17.0625 10.075 17.21L11.42 18.8375V19.055H7.6V18.8375L8.945 17.21C9.09 17.0625 9.1525 16.8525 9.12 16.65V11C9.1375 10.8425 9.0775 10.69 8.9575 10.5825L7.7625 9.1425V8.925H11.475L14.34 15.2125L16.8625 8.93H20.4V9.1425Z" fill="black" fill-opacity="0.8"/>
</svg>
