<svg width="22" height="16" viewBox="0 0 22 16" fill="none" xmlns="http://www.w3.org/2000/svg">
<g clip-path="url(#clip0_383_491)">
<g filter="url(#filter0_d_383_491)">
<rect width="22" height="16" rx="2" fill="#DE2910"/>
<path d="M3.80959 2.81055L5.1531 6.85356L1.63574 4.35484H5.98343L2.46608 6.85356L3.80959 2.81055Z" fill="#FFDE00"/>
<path d="M7.64802 2.06707L7.53403 3.44144L6.80771 2.25323L8.09692 2.80143L6.73726 3.10264L7.64802 2.06707Z" fill="#FFDE00"/>
<path d="M9.3576 3.67684L8.7192 4.89927L8.51089 3.52231L9.48634 4.52784L8.11634 4.27782L9.3576 3.67684Z" fill="#FFDE00"/>
<path d="M9.51803 6.1033L8.43649 6.95897L8.80802 5.61682L9.28842 6.9328L8.13959 6.14565L9.51803 6.1033Z" fill="#FFDE00"/>
<path d="M7.6205 7.12433L7.5636 8.50225L6.78863 7.34517L8.09946 7.83945L6.75346 8.19677L7.6205 7.12433Z" fill="#FFDE00"/>
</g>
</g>
<defs>
<filter id="filter0_d_383_491" x="-8" y="-6" width="38" height="32" filterUnits="userSpaceOnUse" color-interpolation-filters="sRGB">
<feFlood flood-opacity="0" result="BackgroundImageFix"/>
<feColorMatrix in="SourceAlpha" type="matrix" values="0 0 0 0 0 0 0 0 0 0 0 0 0 0 0 0 0 0 127 0" result="hardAlpha"/>
<feOffset dy="2"/>
<feGaussianBlur stdDeviation="4"/>
<feColorMatrix type="matrix" values="0 0 0 0 0 0 0 0 0 0 0 0 0 0 0 0 0 0 0.12 0"/>
<feBlend mode="normal" in2="BackgroundImageFix" result="effect1_dropShadow_383_491"/>
<feBlend mode="normal" in="SourceGraphic" in2="effect1_dropShadow_383_491" result="shape"/>
</filter>
<clipPath id="clip0_383_491">
<rect width="22" height="16" fill="white"/>
</clipPath>
</defs>
</svg>
