<svg width="28" height="28" viewBox="0 0 28 28" fill="none" xmlns="http://www.w3.org/2000/svg">
<path d="M25 13.9867C25 12.511 23.79 11.3516 22.25 11.3516C21.59 11.3516 20.93 11.5624 20.49 11.984C18.84 11.0354 16.86 10.403 14.55 10.2976L15.76 6.08145L19.5 7.13548C19.5 7.41232 19.5569 7.68644 19.6675 7.9422C19.778 8.19797 19.9401 8.43036 20.1444 8.62611C20.3487 8.82186 20.5912 8.97714 20.8581 9.08308C21.125 9.18902 21.4111 9.24355 21.7 9.24355C21.9889 9.24355 22.275 9.18902 22.5419 9.08308C22.8088 8.97714 23.0513 8.82186 23.2556 8.62611C23.4599 8.43036 23.622 8.19797 23.7325 7.9422C23.8431 7.68644 23.9 7.41232 23.9 7.13548C23.9 6.57639 23.6682 6.0402 23.2556 5.64486C22.8431 5.24952 22.2835 5.02742 21.7 5.02742C20.93 5.02742 20.16 5.44903 19.83 6.08145L15.43 5.02742C15.1 4.92202 14.88 5.13282 14.77 5.44903L13.45 10.2976C11.25 10.403 9.16 11.0354 7.51 11.984C7.07 11.5624 6.41 11.3516 5.75 11.3516C4.21 11.3516 3 12.511 3 13.9867C3 14.9353 3.44 15.6731 4.21 16.2002L4.1 17.1488C4.1 20.9433 8.5 24 14 24C19.5 24 23.9 20.9433 23.9 17.1488L23.79 16.2002C24.56 15.6731 25 14.9353 25 13.9867ZM10.7 14.3029C11.47 14.3029 12.02 14.9353 12.02 15.5677C12.02 16.2002 11.47 16.8326 10.7 16.8326C9.93 16.8326 9.38 16.3056 9.38 15.5677C9.38 14.8299 9.93 14.3029 10.7 14.3029ZM18.18 19.9947C16.2 21.1541 11.8 21.1541 9.82 19.9947C9.6 19.7839 9.49 19.4677 9.71 19.2569C9.93 19.046 10.26 18.9406 10.48 19.1515C11.8 20.1001 16.2 20.1001 17.52 19.1515C17.74 18.9406 18.07 19.046 18.29 19.2569C18.51 19.4677 18.4 19.7839 18.18 19.9947ZM17.3 16.8326C16.53 16.8326 15.98 16.2002 15.98 15.5677C15.98 14.8299 16.64 14.3029 17.3 14.3029C18.07 14.3029 18.62 14.9353 18.62 15.5677C18.62 16.3056 18.07 16.8326 17.3 16.8326Z" fill="black" fill-opacity="0.8"/>
</svg>
