<svg width="80" height="80" viewBox="0 0 80 80" fill="none" xmlns="http://www.w3.org/2000/svg">
<rect width="80" height="80" rx="16" fill="#F5F3FE"/>
<path d="M59.886 22.192L57.8075 20.1128C57.729 20.0343 57.631 20 57.528 20C57.4251 20 57.327 20.0392 57.2486 20.1128L53.518 23.8446C51.8659 22.7216 49.9442 22.1626 48.0226 22.1626C45.5126 22.1626 43.0026 23.1188 41.0858 25.0362L36.0904 30.0331C35.9385 30.1851 35.9385 30.4352 36.0904 30.5872L49.4099 43.9108C49.4883 43.9892 49.5864 44.0235 49.6893 44.0235C49.7874 44.0235 49.8903 43.9843 49.9687 43.9108L54.9641 38.9138C58.3418 35.5302 58.7389 30.2979 56.1554 26.4828L59.886 22.751C60.038 22.5941 60.038 22.344 59.886 22.192ZM43.2772 41.7041C43.1252 41.552 42.8752 41.552 42.7232 41.7041L39.4583 44.97L35.0316 40.5419L38.3014 37.2711C38.4533 37.119 38.4533 36.8689 38.3014 36.7169L36.5169 34.932C36.365 34.7799 36.115 34.7799 35.963 34.932L32.6932 38.2028L30.5852 36.0942C30.5068 36.0157 30.4087 35.9814 30.3058 35.9814C30.2077 35.9814 30.1048 36.0206 30.0264 36.0942L25.0358 41.0911C21.6582 44.4698 21.2611 49.707 23.8446 53.5221L20.114 57.2539C19.962 57.4059 19.962 57.656 20.114 57.808L22.1925 59.8872C22.271 59.9657 22.369 60 22.472 60C22.5749 60 22.673 59.9608 22.7514 59.8872L26.482 56.1555C28.1341 57.2784 30.0558 57.8374 31.9774 57.8374C34.4874 57.8374 36.9974 56.8812 38.9141 54.9638L43.9096 49.9669C44.0615 49.8149 44.0615 49.5648 43.9096 49.4128L41.8016 47.3042L45.0714 44.0333C45.2234 43.8813 45.2234 43.6312 45.0714 43.4792L43.2772 41.7041Z" fill="#5959D8"/>
</svg>
