<svg width="80" height="80" viewBox="0 0 80 80" fill="none" xmlns="http://www.w3.org/2000/svg">
<rect width="80" height="80" rx="16" fill="#FCF5EC"/>
<path d="M23 26C23 22.6863 25.6863 20 29 20H51C54.3137 20 57 22.6863 57 26V54C57 57.3137 54.3137 60 51 60H29C25.6863 60 23 57.3137 23 54V26Z" fill="#F1AB43"/>
<path d="M31.5599 36.8008C31.6336 36.8048 31.7078 36.8068 31.7824 36.8068C32.2549 36.8068 32.7088 36.7254 33.1314 36.5754L43.4141 46.92C43.0799 48.0491 43.3631 49.0106 43.3631 49.0106C43.6987 50.4486 44.8133 51.2474 44.8133 51.2474C46.9705 52.6362 48.5643 51.6776 48.5643 51.6776L46.0596 49.2196L48.1808 47.0688L50.6856 49.5513C51.7881 46.8445 49.6369 45.1146 49.6369 45.1146C48.853 44.4155 47.9161 44.2414 47.4401 44.1992C47.3664 44.1952 47.2922 44.1932 47.2176 44.1932C46.5968 44.1932 46.0082 44.3338 45.4804 44.5856L35.4403 34.4854C35.9909 33.1912 35.6369 31.9894 35.6369 31.9894C35.3013 30.5514 34.1867 29.7526 34.1867 29.7526C32.0295 28.3638 30.4357 29.3224 30.4357 29.3224L32.9405 31.7804L30.8192 33.9312L28.3144 31.4487C27.2119 34.1555 29.3631 35.8854 29.3631 35.8854C30.147 36.5845 31.0839 36.7586 31.5599 36.8008Z" fill="white"/>
<path d="M36.4278 41.7449L29.1382 48.718C28.9554 48.8925 28.9538 49.1754 29.1345 49.3518L30.6859 50.8652C30.8681 51.0429 31.1664 51.0452 31.3515 50.8703L38.6768 43.9263L36.4278 41.7449Z" fill="white"/>
<path d="M43.3846 39.4633L41.1161 37.263L45.9302 32.6719C46.1196 32.4911 46.1134 32.1956 45.9166 32.0222L44.19 30.5009C43.9947 30.3288 43.9869 30.0361 44.1729 29.8547L45.9359 28.1348C46.1225 27.9527 46.4298 27.9555 46.6128 28.1408L50.4571 32.0326C52.1143 33.6887 52.1318 35.9493 51.8849 37.5506C51.8166 37.9935 51.1713 38.0313 50.9662 37.629C50.1479 36.0235 49.1854 35.214 48.5893 34.9113C48.434 34.8325 48.2493 34.8763 48.1242 34.9945L43.3846 39.4633Z" fill="white"/>
</svg>
