<svg width="28" height="28" viewBox="0 0 28 28" fill="none" xmlns="http://www.w3.org/2000/svg">
<path d="M25 7.13817C24.191 7.48965 23.3105 7.7426 22.4037 7.84112C23.3396 7.27929 24.0508 6.3926 24.3866 5.33817C23.5221 5.8574 22.5438 6.23817 21.5259 6.43521C20.701 5.54852 19.5297 5 18.2316 5C15.7331 5 13.7237 7.03965 13.7237 9.5426C13.7237 9.89408 13.766 10.2456 13.8348 10.5837C10.0936 10.3867 6.757 8.58669 4.53876 5.83077C4.14746 6.5071 3.92537 7.27929 3.92537 8.12337C3.92537 9.6997 4.72119 11.0896 5.93474 11.9071C5.19445 11.8778 4.49645 11.6675 3.89629 11.3293V11.3852C3.89629 13.5926 5.44562 15.4219 7.51052 15.8426C7.13244 15.9411 6.72792 15.997 6.3234 15.997C6.02992 15.997 5.75231 15.9678 5.47206 15.9278C6.04314 17.7278 7.70616 19.0352 9.68646 19.0778C8.13712 20.3 6.19649 21.0189 4.08929 21.0189C3.71121 21.0189 3.36222 21.0056 3 20.963C4.9988 22.2544 7.37039 23 9.92441 23C18.2157 23 22.7527 16.0822 22.7527 10.0778C22.7527 9.88077 22.7527 9.68373 22.7395 9.48669C23.6172 8.83964 24.3866 8.03817 25 7.13817Z" fill="black" fill-opacity="0.8"/>
</svg>
