<svg width="28" height="28" viewBox="0 0 28 28" fill="none" xmlns="http://www.w3.org/2000/svg">
<path d="M24.5408 9.18694C24.2879 8.32643 23.5415 7.64873 22.5962 7.41911C20.8799 7 14 7 14 7C14 7 7.12009 7 5.40379 7.41688C4.45603 7.6465 3.71205 8.3242 3.45915 9.18471C3 10.7452 3 14 3 14C3 14 3 17.2548 3.45915 18.8131C3.71205 19.6736 4.45848 20.3513 5.40379 20.5809C7.12009 21 14 21 14 21C14 21 20.8799 21 22.5962 20.5809C23.544 20.3513 24.2879 19.6736 24.5408 18.8131C25 17.2548 25 14 25 14C25 14 25 10.7452 24.5408 9.18694ZM11.8147 16.9873V11.0127L17.5112 13.9777L11.8147 16.9873Z" fill="black" fill-opacity="0.8"/>
</svg>
